<svg width="63" height="70" viewBox="0 0 63 70" fill="none" xmlns="http://www.w3.org/2000/svg">
<path d="M62.5714 35V14C62.5714 10.15 59.4429 7 55.619 7H52.1429V3.5C52.1429 1.575 50.5786 0 48.6667 0C46.7548 0 45.1905 1.575 45.1905 3.5V7H17.381V3.5C17.381 1.575 15.8167 0 13.9048 0C11.9929 0 10.4286 1.575 10.4286 3.5V7H6.95238C3.12857 7 0 10.15 0 14V63C0 66.85 3.12857 70 6.95238 70H46.5V63H6.95238V28H55.619V35H62.5714Z" fill="#35E0A3"/>
<path d="M13.3965 53.3728C11.361 53.3728 10 54.6863 10 56.6981C10 58.6744 11.3136 59.9762 13.4675 59.9762C14.6864 59.9762 15.6568 59.562 16.3314 58.8165L15.0888 57.5975C14.6627 57.9881 14.1775 58.2129 13.6687 58.2129C13.0533 58.2129 12.6036 57.8697 12.4142 57.2544H16.7456C16.8876 54.8875 15.6568 53.3728 13.3965 53.3728ZM14.3906 56.0828H12.3669C12.4852 55.4319 12.8521 54.994 13.4201 54.994C14 54.994 14.4024 55.4437 14.3906 56.0828Z" fill="#35E0A3"/>
<path d="M16.7071 53.4556L19.0977 59.8934H21.5356L23.9379 53.4556H21.5474L20.3521 57.7159L19.1687 53.4556H16.7071Z" fill="#35E0A3"/>
<path d="M27.2649 53.3728C25.2294 53.3728 23.8684 54.6863 23.8684 56.6981C23.8684 58.6744 25.182 59.9762 27.3359 59.9762C28.5548 59.9762 29.5253 59.562 30.1998 58.8165L28.9572 57.5975C28.5312 57.9881 28.046 58.2129 27.5371 58.2129C26.9217 58.2129 26.472 57.8697 26.2826 57.2544H30.614C30.756 54.8875 29.5253 53.3728 27.2649 53.3728ZM28.259 56.0828H26.2353C26.3536 55.4319 26.7205 54.994 27.2886 54.994C27.8684 54.994 28.2708 55.4437 28.259 56.0828Z" fill="#35E0A3"/>
<path d="M36.0149 53.3609C35.1155 53.3609 34.4173 53.7396 33.9676 54.4497V53.4556H31.577V59.8934H33.9676V56.71C33.9676 55.9763 34.37 55.4674 35.0208 55.4556C35.5771 55.4556 35.9439 55.8579 35.9439 56.497V59.8934H38.3345V55.8106C38.3345 54.3195 37.3877 53.3609 36.0149 53.3609Z" fill="#35E0A3"/>
<path d="M43.574 57.9407C43.2899 58.0472 43.0296 58.1301 42.8402 58.1301C42.5089 58.1301 42.2958 57.9289 42.2958 57.5147V55.3136H43.8817V53.787H42.2958V52H39.9171V53.787H39.0296V55.3136H39.9171V57.8816C39.9171 59.2188 40.8402 60.0117 42.213 59.9999C42.8639 59.9999 43.5503 59.846 44 59.5857L43.574 57.9407Z" fill="#35E0A3"/>
<path d="M48 43.5209V50.625L55.5 49.375V70H63V40L48 43.5209Z" fill="#BF00EF"/>
</svg>
